HIERARCHY
ROOT SimulationBone
{
	OFFSET 0.000000 0.000000 0.000000
	CHANNELS 6 Xposition Yposition Zposition Zrotation Yrotation Xrotation 
	JOINT Hips
	{
		OFFSET 0.000000 0.000000 0.000000
		CHANNELS 6 Xposition Yposition Zposition Zrotation Yrotation Xrotation 
		JOINT LeftUpLeg
		{
			OFFSET 0.103459 1.857842 10.548500
			CHANNELS 3 Zrotation Yrotation Xrotation
			JOINT LeftLeg
			{
				OFFSET 43.500008 -0.000042 -0.000011
				CHANNELS 3 Zrotation Yrotation Xrotation
				JOINT LeftFoot
				{
					OFFSET 42.372200 0.000000 0.000010
					CHANNELS 3 Zrotation Yrotation Xrotation
					JOINT LeftToe
					{
						OFFSET 17.300018 0.000008 -0.000006
						CHANNELS 3 Zrotation Yrotation Xrotation
						End Site
						{
							OFFSET 0.000000 0.000000 0.000000
						}
					}
				}
			}
		}
		JOINT RightUpLeg
		{
			OFFSET 0.103459 1.857820 -10.548510
			CHANNELS 3 Zrotation Yrotation Xrotation
			JOINT RightLeg
			{
				OFFSET 43.500038 -0.000004 -0.000004
				CHANNELS 3 Zrotation Yrotation Xrotation
				JOINT RightFoot
				{
					OFFSET 42.372261 -0.000019 0.000015
					CHANNELS 3 Zrotation Yrotation Xrotation
					JOINT RightToe
					{
						OFFSET 17.300003 -0.000001 0.000006
						CHANNELS 3 Zrotation Yrotation Xrotation
						End Site
						{
							OFFSET 0.000000 0.000000 0.000000
						}
					}
				}
			}
		}
		JOINT Spine
		{
			OFFSET 6.901967 -2.603730 -0.000004
			CHANNELS 3 Zrotation Yrotation Xrotation
			JOINT Spine1
			{
				OFFSET 12.588097 -0.000009 0.000008
				CHANNELS 3 Zrotation Yrotation Xrotation
				JOINT Spine2
				{
					OFFSET 12.343205 0.000003 -0.000002
					CHANNELS 3 Zrotation Yrotation Xrotation
					JOINT Neck
					{
						OFFSET 25.832899 -0.000006 0.000003
						CHANNELS 3 Zrotation Yrotation Xrotation
						JOINT Head
						{
							OFFSET 11.766611 0.000013 0.000001
							CHANNELS 3 Zrotation Yrotation Xrotation
							End Site
							{
								OFFSET 0.000000 0.000000 0.000000
							}
						}
					}
					JOINT LeftShoulder
					{
						OFFSET 19.745903 -1.480350 6.000102
						CHANNELS 3 Zrotation Yrotation Xrotation
						JOINT LeftArm
						{
							OFFSET 11.284125 -0.000002 -0.000024
							CHANNELS 3 Zrotation Yrotation Xrotation
							JOINT LeftForeArm
							{
								OFFSET 33.000050 0.000009 0.000033
								CHANNELS 3 Zrotation Yrotation Xrotation
								JOINT LeftHand
								{
									OFFSET 25.200012 0.000010 -0.000003
									CHANNELS 3 Zrotation Yrotation Xrotation
									End Site
									{
										OFFSET 0.000000 0.000000 0.000000
									}
								}
							}
						}
					}
					JOINT RightShoulder
					{
						OFFSET 19.746105 -1.480362 -6.000072
						CHANNELS 3 Zrotation Yrotation Xrotation
						JOINT RightArm
						{
							OFFSET 11.284140 -0.000003 -0.000004
							CHANNELS 3 Zrotation Yrotation Xrotation
							JOINT RightForeArm
							{
								OFFSET 33.000099 0.000013 0.000007
								CHANNELS 3 Zrotation Yrotation Xrotation
								JOINT RightHand
								{
									OFFSET 25.199776 0.000126 0.000428
									CHANNELS 3 Zrotation Yrotation Xrotation
									End Site
									{
										OFFSET 0.000000 0.000000 0.000000
									}
								}
							}
						}
					}
				}
			}
		}
	}
}
MOTION
Frames: 11
Frame Time: 0.016667
-186.574874 0.000000 429.372889 0.000000 -24.976306 0.000000 1.112593 92.014170 0.347304 94.190391 -0.413734 -175.947803 173.152004 1.594393 175.635447 -21.534885 -1.120680 -3.125403 79.514666 2.122690 -0.486479 21.454552 0.003090 -0.000001 164.240843 0.765826 168.906047 -39.372066 0.351349 7.525146 96.426681 -4.326683 9.340588 21.454559 -0.003104 -0.000017 6.964816 -0.170800 -1.394647 3.920436 -0.294868 -2.794228 3.602717 -0.311587 -2.792395 -8.167500 10.313001 1.974145 -0.099435 -3.646513 5.225463 -166.194435 -79.535282 -15.584711 -28.926096 56.729067 29.643923 -37.491666 -13.461337 1.294283 6.977666 -0.169681 34.852819 -143.335119 71.959867 39.065345 22.923457 -57.330229 -68.150227 -33.667781 14.045639 -1.270219 6.031470 3.049303 -7.782163 
-186.349196 0.000000 429.900974 0.000000 -23.034641 0.000000 1.208978 91.918587 0.236101 94.367574 -1.023856 -175.325300 173.648120 1.950301 176.462022 -21.124675 -1.531379 -2.248277 78.403870 1.544831 -0.386721 21.454553 0.003090 -0.000001 168.110462 2.540203 166.984246 -29.337936 1.590789 7.922545 92.793761 -4.259849 10.261803 21.454560 -0.003107 -0.000017 6.979277 -0.325867 -1.287986 3.952643 -0.608116 -2.586251 3.634858 -0.623577 -2.582534 -7.833036 9.253749 1.288762 -0.907171 -2.535897 4.055886 -165.763935 -79.255187 -16.023810 -27.891493 56.144443 29.810404 -37.842433 -13.545746 1.308146 6.955732 -0.236597 34.148363 -143.678123 71.911718 38.715477 23.326917 -57.332510 -68.082811 -33.421914 14.002332 -1.262343 6.210274 2.004849 -8.190426 
-186.111228 0.000000 430.406972 0.000000 -21.190451 0.000000 1.268942 91.999336 0.037153 94.403481 -1.317253 -174.820391 174.274093 2.122608 177.351735 -20.071162 -2.023007 -1.559016 76.972568 1.406238 0.827400 21.454552 0.003091 -0.000001 170.847022 4.520153 167.635583 -22.739043 3.105208 7.871061 84.959127 -3.214761 12.362389 21.454560 -0.003110 -0.000016 6.947226 -0.440017 -1.125091 3.890015 -0.842465 -2.264207 3.572147 -0.855985 -2.259081 -7.253275 7.969198 0.613544 -2.017684 -1.306591 2.790975 -164.676351 -79.071856 -17.130968 -27.033527 55.696189 29.824215 -38.176391 -13.799811 1.333442 6.968195 -0.095320 33.218225 -143.504751 72.164444 38.883063 24.106624 -57.725558 -68.363879 -33.254489 13.991007 -1.258050 6.440782 1.195323 -8.404521 
-185.862925 0.000000 430.888385 0.000000 -19.445903 0.000000 1.302041 92.126152 -0.168375 94.536592 -1.398653 -174.714036 174.929232 2.144302 178.130077 -19.155721 -2.416227 -1.083461 75.859782 1.463628 2.135832 21.454553 0.003093 0.000000 172.781082 6.285601 170.892125 -19.245897 4.565504 6.819281 77.845748 -1.699841 12.596721 21.454560 -0.003112 -0.000015 6.935832 -0.500889 -0.855110 3.866276 -0.973321 -1.726339 3.548294 -0.983596 -1.720430 -6.650141 6.630962 -0.058584 -3.022306 -0.044945 1.490562 -163.242257 -78.733593 -18.592692 -26.545698 55.255863 29.410186 -38.272698 -13.961427 1.345905 6.895104 -0.285567 31.917664 -143.642578 72.273807 38.737348 24.331093 -57.897394 -68.387588 -33.015655 13.936881 -1.249313 6.691710 0.589189 -8.188549 
-185.606632 0.000000 431.344439 0.000000 -17.803290 0.000000 1.328242 92.172781 -0.292586 94.975951 -1.396921 -175.229865 175.559503 2.088340 178.602427 -19.012913 -2.511530 -0.799594 75.554970 1.371068 2.468433 21.454554 0.003094 0.000000 174.459955 7.497966 176.008671 -17.703434 5.587597 4.604962 75.863564 -0.961686 8.860504 21.454557 -0.003115 -0.000016 6.997956 -0.507620 -0.453473 3.987279 -0.999546 -0.924015 3.669177 -1.004974 -0.917960 -6.200506 5.406023 -0.710187 -3.527075 1.160888 0.249227 -161.812134 -77.955961 -20.057012 -26.474366 54.689742 28.432196 -37.879039 -13.814409 1.323371 6.636339 -1.337142 30.125725 -144.882518 71.850693 37.482311 23.191748 -57.299242 -67.526682 -32.523611 13.757766 -1.227615 6.907154 0.137812 -7.459099 
-185.345257 0.000000 431.775068 0.000000 -16.263762 0.000000 1.391493 92.245323 -0.334051 95.361945 -1.282322 -176.242895 176.242213 2.027205 178.844433 -18.795569 -2.267632 -0.727884 75.484962 1.219918 2.121374 21.454555 0.003093 -0.000000 176.060366 7.986601 -179.532888 -16.417152 6.167631 2.573685 76.070568 -0.846686 4.169511 21.454555 -0.003115 -0.000017 7.009800 -0.474123 -0.011179 4.007084 -0.947630 -0.038583 3.688937 -0.947708 -0.032858 -5.593603 4.277559 -1.263270 -3.647665 2.172270 -0.826913 -159.919916 -76.573082 -22.004991 -26.293215 54.140971 27.522924 -36.781780 -13.714435 1.293413 6.251805 -2.887255 27.933582 -146.653367 71.341514 35.683276 21.548298 -56.390894 -66.238373 -31.629359 13.494739 -1.191651 7.139669 0.019992 -6.563916 
-185.082410 0.000000 432.180305 0.000000 -14.827221 0.000000 1.527107 92.456671 -0.316964 95.308624 -1.075483 -177.491111 177.044905 2.038352 178.952972 -17.599566 -1.723500 -0.829296 74.998085 1.152528 1.649392 21.454552 0.003092 -0.000000 177.577368 7.828139 -177.977464 -14.035900 6.424699 2.097111 74.878395 -1.169636 1.765545 21.454557 -0.003111 -0.000017 6.848686 -0.424189 0.361464 3.681973 -0.859559 0.709455 3.363869 -0.855121 0.714635 -4.547764 3.211769 -1.664225 -3.609076 2.896685 -1.669419 -157.397486 -74.631603 -24.616245 -25.438108 53.875336 27.154526 -34.975439 -14.013145 1.276242 5.857870 -4.497524 25.506436 -148.298525 71.285918 33.994993 20.374141 -55.802409 -65.065622 -30.309559 13.230217 -1.147146 7.467445 0.394920 -5.885025 
-184.820714 0.000000 432.559656 0.000000 -13.493073 0.000000 1.698423 92.714546 -0.297344 94.924263 -1.021006 -178.499514 177.863686 2.234802 178.837807 -15.760783 -1.066035 -0.795384 74.185416 1.019734 1.280956 21.454550 0.003091 -0.000000 178.859910 7.503006 -178.649977 -11.282896 6.417169 2.983011 73.130650 -1.944070 1.239897 21.454560 -0.003106 -0.000017 6.573482 -0.414798 0.593188 3.129846 -0.845260 1.175165 2.811799 -0.838012 1.180250 -3.376128 2.268688 -1.955865 -3.589905 3.517386 -2.337357 -154.693059 -72.982691 -27.422697 -23.592497 54.350819 26.552023 -33.264451 -14.472963 1.262554 5.755641 -6.318729 23.112052 -149.373107 71.708760 32.877260 19.867611 -55.743805 -64.265794 -29.010046 13.090759 -1.114428 7.921576 1.113193 -5.514023 
-184.561678 0.000000 432.912363 0.000000 -12.261015 0.000000 1.854762 92.904455 -0.326678 94.418632 -1.306119 -178.869816 178.563362 2.675573 178.446990 -13.829760 -0.521661 -0.364492 73.287669 0.669178 1.133976 21.454552 0.003092 0.000000 179.749058 7.408129 179.722144 -9.210994 6.213115 4.660231 72.345240 -3.073341 1.442764 21.454561 -0.003102 -0.000017 6.274829 -0.491692 0.649373 2.531287 -0.997188 1.288133 2.213237 -0.989255 1.294133 -2.513066 1.510461 -2.189692 -3.659866 4.213672 -2.909259 -151.842060 -72.398291 -30.363658 -20.555612 55.862171 25.056159 -32.490471 -14.784115 1.262981 6.207689 -8.521361 20.903594 -149.493162 72.455654 32.730517 19.944657 -56.214019 -63.951281 -28.202661 13.156162 -1.104535 8.519587 2.017159 -5.428945 
-184.307281 0.000000 433.238431 0.000000 -11.130266 0.000000 1.947478 93.028214 -0.393377 93.848239 -1.763369 -178.746566 179.064228 3.152603 178.058797 -12.007508 -0.257707 0.328985 72.392798 0.200639 1.196681 21.454553 0.003093 0.000000 -179.841913 7.486099 177.827226 -8.047557 5.920551 6.632054 72.347972 -4.313906 1.968991 21.454560 -0.003101 -0.000017 5.990139 -0.614919 0.600374 1.961108 -1.239638 1.190657 1.643006 -1.232288 1.198122 -2.291261 0.926425 -2.414381 -3.469098 4.883822 -3.402692 -149.266392 -72.504114 -33.003916 -16.483515 57.728306 23.500723 -32.804984 -14.936165 1.282593 7.099903 -10.851280 18.534786 -148.787896 73.147142 33.431722 20.012172 -56.804721 -63.773488 -28.001703 13.270101 -1.107594 9.303910 3.218907 -5.438659 
-184.059893 0.000000 433.538557 0.000000 -10.096422 0.000000 1.945618 93.111436 -0.472277 93.254165 -2.166157 -178.424001 179.346572 3.418997 177.965704 -10.424159 -0.373795 1.048147 71.574411 -0.231380 1.408359 21.454548 0.003091 -0.000001 -179.887636 7.580604 176.192871 -7.707508 5.680801 8.432853 72.618059 -5.401545 2.591420 21.454558 -0.003104 -0.000017 5.745233 -0.727480 0.534361 1.470978 -1.461422 1.059962 1.152822 -1.454857 1.068769 -2.890190 0.486029 -2.663146 -2.715210 5.371062 -3.808099 -147.651167 -72.754556 -34.652350 -11.655358 59.126705 22.845604 -34.068233 -14.985555 1.314450 8.277006 -12.994676 15.594881 -147.636671 73.439516 34.601460 19.470564 -57.102007 -63.314995 -28.361749 13.283458 -1.115050 10.236259 4.780532 -5.360559 
